#!OML:ASF F:\VICON\USERDATA\INSTALL\rory3\rory3.ASF
:FULLY-SPECIFIED
:DEGREES
35
root 1.45321 17.2379 34.3078 -158.467 -53.6641 -174.75
lowerback -17.7676 5.172 -2.11421
upperback -10.7836 6.03134 -1.07242
thorax -1.76071 2.63072 1.00537
lowerneck -10.0036 0.922537 1.8558
upperneck 25.254 -0.62565 2.99677
head 9.63256 -0.0920807 0.602131
rclavicle 2.34069e-014 4.92986e-014
rhumerus -54.4391 -30.2251 -49.3352
rradius 10.0468
rwrist 24.2247
rhand -2.21696 15.7672
rfingers 7.12502
rthumb 23.4653 -12.8218
lclavicle 2.34069e-014 4.92986e-014
lhumerus -54.9328 26.7051 52.9894
lradius 32.2098
lwrist 0.68781
lhand -0.768893 19.1343
lfingers 7.12502
lthumb 24.8537 47.5389
rfemur -13.6238 -4.34527 32.5666
rtibia 35.8564
rfoot 38.7934 -22.5507
rtoes 23.3317
lfemur -38.0052 4.0459 -29.9854
ltibia 30.9526
lfoot -39.8952 28.0962
ltoes 20.1865
36
root 1.45023 17.241 34.3097 -158.599 -53.7298 -174.542
lowerback -17.8072 5.20981 -1.98777
upperback -10.8292 6.05563 -1.06057
thorax -1.77764 2.63457 0.953062
lowerneck -10.0167 0.892568 1.40124
upperneck 25.0883 -0.659157 3.39677
head 9.57659 -0.104689 0.814324
rclavicle -9.03476e-014 -6.0033e-014
rhumerus -54.5553 -30.2236 -49.2143
rradius 10.098
rwrist 24.415
rhand -2.08476 15.7567
rfingers 7.12502
rthumb 23.5921 -12.816
lclavicle -9.03476e-014 -6.0033e-014
lhumerus -54.7171 26.3938 53.3102
lradius 32.424
lwrist 1.15668
lhand -1.35892 19.2697
lfingers 7.12502
lthumb 24.2881 47.7511
rfemur -13.6524 -4.06369 32.7235
rtibia 35.8494
rfoot 38.4871 -23.4317
rtoes 24.2764
lfemur -38.0221 3.81852 -29.7551
ltibia 30.9618
lfoot -40.2673 27.9524
ltoes 20.8229
37
root 1.44983 17.2412 34.3121 -158.749 -53.7749 -174.412
lowerback -17.7617 5.20247 -1.8858
upperback -10.8259 6.03228 -1.0106
thorax -1.79039 2.62048 0.942368
lowerneck -10.1816 0.98291 0.786524
upperneck 25.0722 -0.531827 3.91499
head 9.59977 -0.0420562 1.11425
rclavicle -7.0817e-015 1.59028e-014
rhumerus -54.4032 -30.1778 -49.2921
rradius 9.95314
rwrist 24.5411
rhand -2.0353 15.7396
rfingers 7.12502
rthumb 23.6395 -12.8271
lclavicle -7.0817e-015 1.59028e-014
lhumerus -54.6406 26.4031 53.4143
lradius 32.6469
lwrist 1.39925
lhand -1.32019 19.2083
lfingers 7.12502
lthumb 24.3253 47.6847
rfemur -13.6465 -4.45236 32.7419
rtibia 35.8513
rfoot 38.6595 -23.0181
rtoes 23.5669
lfemur -37.9622 3.75335 -29.6321
ltibia 30.9512
lfoot -40.4138 27.9208
ltoes 20.9267
38
root 1.4496 17.2462 34.312 -158.664 -53.7353 -174.541
lowerback -17.7371 5.1748 -1.98196
upperback -10.8292 6.00898 -1.02318
thorax -1.81556 2.61325 0.976272
lowerneck -9.64553 0.961957 0.813209
upperneck 24.1747 -0.443851 3.79302
head 9.17921 -0.0120601 1.06835
rclavicle 8.41356e-014 5.12864e-014
rhumerus -54.2881 -30.0774 -49.354
rradius 9.88693
rwrist 24.4778
rhand -1.86727 15.7231
rfingers 7.12502
rthumb 23.8007 -12.8226
lclavicle 8.41356e-014 5.12864e-014
lhumerus -54.5378 26.3554 53.4653
lradius 32.8675
lwrist 1.47415
lhand -1.06577 19.1721
lfingers 7.12502
lthumb 24.5692 47.6156
rfemur -13.5997 -3.81418 32.6955
rtibia 35.8253
rfoot 38.2988 -24.1148
rtoes 25.3126
lfemur -37.8964 3.65452 -29.6806
ltibia 30.8944
lfoot -40.4994 27.9757
ltoes 20.9132
39
root 1.45006 17.244 34.3166 -158.769 -53.747 -174.444
lowerback -17.719 5.12414 -1.93541
upperback -10.8445 5.93171 -0.963122
thorax -1.84044 2.5732 0.999698
lowerneck -8.90238 0.804578 1.56625
upperneck 23.4079 -0.626732 3.31455
head 8.77806 -0.0918305 0.750779
rclavicle 6.07287e-014 2.62396e-014
rhumerus -54.0989 -29.8818 -49.4937
rradius 9.83137
rwrist 24.5121
rhand -1.86114 15.6828
rfingers 7.12502
rthumb 23.8066 -12.8622
lclavicle 6.07287e-014 2.62396e-014
lhumerus -54.6362 26.5316 53.2514
lradius 32.9992
lwrist 1.16228
lhand -0.99051 18.9334
lfingers 7.12502
lthumb 24.6413 47.367
rfemur -13.6215 -3.97423 32.7119
rtibia 35.8625
rfoot 38.3906 -23.9723
rtoes 25.6356
lfemur -37.8933 3.5651 -29.6074
ltibia 30.9084
lfoot -40.5991 28.0491
ltoes 21.0854
40
root 1.44564 17.248 34.321 -158.884 -53.7892 -174.312
lowerback -17.7452 5.04384 -1.84395
upperback -10.8729 5.80515 -0.886859
thorax -1.85212 2.50475 1.0109
lowerneck -8.25048 0.722422 1.92691
upperneck 22.6353 -0.647641 2.95292
head 8.39255 -0.115184 0.561798
rclavicle -3.69988e-014 -1.19271e-015
rhumerus -53.8854 -29.6263 -49.7159
rradius 9.745
rwrist 24.17
rhand -2.0114 15.834
rfingers 7.12502
rthumb 23.6625 -12.7297
lclavicle -3.69988e-014 -1.19271e-015
lhumerus -54.7723 26.6269 53.1157
lradius 33.2087
lwrist 1.3873
lhand -1.05793 18.8298
lfingers 7.12502
lthumb 24.5767 47.2723
rfemur -13.6233 -3.78782 32.7796
rtibia 35.9018
rfoot 38.0701 -24.532
rtoes 26.3728
lfemur -37.903 3.56281 -29.5571
ltibia 30.9213
lfoot -40.3768 28.3219
ltoes 20.523
41
root 1.44557 17.2398 34.3285 -159.002 -53.8305 -174.139
lowerback -17.8107 4.97452 -1.67519
upperback -10.8624 5.68691 -0.795257
thorax -1.79491 2.43791 1.00158
lowerneck -8.13907 0.659306 1.74886
upperneck 22.4218 -0.727546 3.12837
head 8.30066 -0.152873 0.642099
rclavicle 9.60875e-014 4.92986e-014
rhumerus -53.312 -29.4242 -49.9833
rradius 9.42525
rwrist 23.3179
rhand -1.57508 16.1293
rfingers 7.12502
rthumb 24.0809 -12.3797
lclavicle 9.60875e-014 4.92986e-014
lhumerus -54.7296 26.5683 53.336
lradius 33.5511
lwrist 2.46186
lhand -1.41431 19.0835
lfingers 7.12502
lthumb 24.235 47.572
rfemur -13.7148 -4.40441 32.8098
rtibia 36.0064
rfoot 38.3352 -23.6837
rtoes 25.7327
lfemur -37.9979 3.36501 -29.4012
ltibia 31.0283
lfoot -40.4426 28.4951
ltoes 20.4026
